{
  "accessors": [
    {
      "bufferView": 2,
      "componentType": 5126,
      "count": 65532,
      "max": [
        2.9637410640716553,
        -2.4197139739990234,
        1.9711380004882813
      ],
      "min": [
        -2.87631893157959,
        -5.815651893615723,
        -3.0932579040527344
      ],
      "type": "VEC3"
    },
    {
      "bufferView": 2,
      "byteOffset": 786384,
      "componentType": 5126,
      "count": 65532,
      "max": [
        0.9988231062889099,
        0.9999811053276062,
        0.9773406386375427
      ],
      "min": [
        -0.9839167594909668,
        -0.9918720126152039,
        -0.999635636806488
      ],
      "type": "VEC3"
    },
    {
      "bufferView": 1,
      "componentType": 5126,
      "count": 65532,
      "max": [
        0.995278000831604,
        0.9183909893035889
      ],
      "min": [
        0.0039049999322742224,
        0.014871999621391296
      ],
      "type": "VEC2"
    },
    {
      "bufferView": 0,
      "componentType": 5125,
      "count": 307497,
      "type": "SCALAR"
    },
    {
      "bufferView": 2,
      "byteOffset": 1572768,
      "componentType": 5126,
      "count": 65532,
      "max": [
        2.851515054702759,
        -2.450489044189453,
        1.9357719421386719
      ],
      "min": [
        -2.755466938018799,
        -5.708417892456055,
        -2.967339038848877
      ],
      "type": "VEC3"
    },
    {
      "bufferView": 2,
      "byteOffset": 2359152,
      "componentType": 5126,
      "count": 65532,
      "max": [
        0.9928561449050903,
        0.9999914765357971,
        0.9643766283988953
      ],
      "min": [
        -0.9967756271362305,
        -0.9807415008544922,
        -0.9999871253967285
      ],
      "type": "VEC3"
    },
    {
      "bufferView": 1,
      "byteOffset": 524256,
      "componentType": 5126,
      "count": 65532,
      "max": [
        0.9578629732131958,
        0.9693599939346313
      ],
      "min": [
        0.012372000142931938,
        0.0038320000749081373
      ],
      "type": "VEC2"
    },
    {
      "bufferView": 0,
      "byteOffset": 1229988,
      "componentType": 5125,
      "count": 327867,
      "type": "SCALAR"
    },
    {
      "bufferView": 2,
      "byteOffset": 3145536,
      "componentType": 5126,
      "count": 65532,
      "max": [
        2.5253820419311523,
        -2.6031548976898193,
        1.8535749912261963
      ],
      "min": [
        -2.860222101211548,
        -5.161194801330566,
        -2.476166009902954
      ],
      "type": "VEC3"
    },
    {
      "bufferView": 2,
      "byteOffset": 3931920,
      "componentType": 5126,
      "count": 65532,
      "max": [
        0.9997446537017822,
        0.9999618530273438,
        0.8048588633537292
      ],
      "min": [
        -0.998091459274292,
        -0.9965002536773682,
        -0.9995658993721008
      ],
      "type": "VEC3"
    },
    {
      "bufferView": 1,
      "byteOffset": 1048512,
      "componentType": 5126,
      "count": 65532,
      "max": [
        0.865086019039154,
        0.9678410291671753
      ],
      "min": [
        0.013736999593675137,
        0.14474399387836456
      ],
      "type": "VEC2"
    },
    {
      "bufferView": 0,
      "byteOffset": 2541456,
      "componentType": 5125,
      "count": 314466,
      "type": "SCALAR"
    },
    {
      "bufferView": 2,
      "byteOffset": 4718304,
      "componentType": 5126,
      "count": 65532,
      "max": [
        2.724165916442871,
        -2.922481060028076,
        1.6141719818115234
      ],
      "min": [
        -1.4159330129623413,
        -5.444573879241943,
        -2.8255460262298584
      ],
      "type": "VEC3"
    },
    {
      "bufferView": 2,
      "byteOffset": 5504688,
      "componentType": 5126,
      "count": 65532,
      "max": [
        0.9998876452445984,
        0.9999992251396179,
        0.9964927434921265
      ],
      "min": [
        -0.9987713694572449,
        -0.9999737739562988,
        -0.9999122619628906
      ],
      "type": "VEC3"
    },
    {
      "bufferView": 1,
      "byteOffset": 1572768,
      "componentType": 5126,
      "count": 65532,
      "max": [
        0.9397310018539429,
        0.9592409729957581
      ],
      "min": [
        0.02896999940276146,
        0.0468829981982708
      ],
      "type": "VEC2"
    },
    {
      "bufferView": 0,
      "byteOffset": 3799320,
      "componentType": 5125,
      "count": 325164,
      "type": "SCALAR"
    },
    {
      "bufferView": 2,
      "byteOffset": 6291072,
      "componentType": 5126,
      "count": 65532,
      "max": [
        2.709052085876465,
        -3.1499969959259033,
        1.3861730098724365
      ],
      "min": [
        -0.7249590158462524,
        -5.719138145446777,
        -2.997220993041992
      ],
      "type": "VEC3"
    },
    {
      "bufferView": 2,
      "byteOffset": 7077456,
      "componentType": 5126,
      "count": 65532,
      "max": [
        0.9998197555541992,
        0.9998687505722046,
        0.9964927434921265
      ],
      "min": [
        -0.9855742454528809,
        -0.9990575313568115,
        -0.9997077584266663
      ],
      "type": "VEC3"
    },
    {
      "bufferView": 1,
      "byteOffset": 2097024,
      "componentType": 5126,
      "count": 65532,
      "max": [
        0.9763519763946533,
        0.9597480297088623
      ],
      "min": [
        0.015425000339746475,
        0.012063000351190567
      ],
      "type": "VEC2"
    },
    {
      "bufferView": 0,
      "byteOffset": 5099976,
      "componentType": 5125,
      "count": 307293,
      "type": "SCALAR"
    },
    {
      "bufferView": 2,
      "byteOffset": 7863840,
      "componentType": 5126,
      "count": 65532,
      "max": [
        2.930453062057495,
        -2.511660099029541,
        1.8781659603118896
      ],
      "min": [
        -1.9673199653625488,
        -5.8140740394592285,
        -3.0917000770568848
      ],
      "type": "VEC3"
    },
    {
      "bufferView": 2,
      "byteOffset": 8650224,
      "componentType": 5126,
      "count": 65532,
      "max": [
        0.9998876452445984,
        0.9999914765357971,
        0.9962597489356995
      ],
      "min": [
        -0.9955856204032898,
        -0.9998264908790588,
        -0.9995651245117188
      ],
      "type": "VEC3"
    },
    {
      "bufferView": 1,
      "byteOffset": 2621280,
      "componentType": 5126,
      "count": 65532,
      "max": [
        0.9950510263442993,
        0.9503710269927979
      ],
      "min": [
        0.005717999767512083,
        0.004430999979376793
      ],
      "type": "VEC2"
    },
    {
      "bufferView": 0,
      "byteOffset": 6329148,
      "componentType": 5125,
      "count": 275700,
      "type": "SCALAR"
    },
    {
      "bufferView": 2,
      "byteOffset": 9436608,
      "componentType": 5126,
      "count": 55914,
      "max": [
        2.9591619968414307,
        -2.7516629695892334,
        1.7607500553131104
      ],
      "min": [
        -2.6548819541931152,
        -5.313302993774414,
        -2.7753310203552246
      ],
      "type": "VEC3"
    },
    {
      "bufferView": 2,
      "byteOffset": 10107576,
      "componentType": 5126,
      "count": 55914,
      "max": [
        0.9998792409896851,
        0.999971866607666,
        0.9856187701225281
      ],
      "min": [
        -0.9990162253379822,
        -0.9686762094497681,
        -0.9995720982551575
      ],
      "type": "VEC3"
    },
    {
      "bufferView": 1,
      "byteOffset": 3145536,
      "componentType": 5126,
      "count": 55914,
      "max": [
        0.9236059784889221,
        0.9599980115890503
      ],
      "min": [
        0.0068259998224675655,
        0.09189099818468094
      ],
      "type": "VEC2"
    },
    {
      "bufferView": 0,
      "byteOffset": 7431948,
      "componentType": 5125,
      "count": 243600,
      "type": "SCALAR"
    }
  ],
  "asset": {
    "extras": {
      "author": "dee_van_hoven (https://sketchfab.com/dee_van_hoven)",
      "license": "CC-BY-4.0 (http://creativecommons.org/licenses/by/4.0/)",
      "source": "https://sketchfab.com/3d-models/dirty-ground-floor-01-826f4542b5ea479d90f56b51be9d8eb7",
      "title": "Dirty Ground Floor 01"
    },
    "generator": "Sketchfab-12.68.0",
    "version": "2.0"
  },
  "bufferViews": [
    {
      "buffer": 0,
      "byteLength": 8406348,
      "name": "floatBufferViews",
      "target": 34963
    },
    {
      "buffer": 0,
      "byteLength": 3592848,
      "byteOffset": 8406348,
      "byteStride": 8,
      "name": "floatBufferViews",
      "target": 34962
    },
    {
      "buffer": 0,
      "byteLength": 10778544,
      "byteOffset": 11999196,
      "byteStride": 12,
      "name": "floatBufferViews",
      "target": 34962
    }
  ],
  "buffers": [
    {
      "byteLength": 22777740,
      "uri": "scene.bin"
    }
  ],
  "images": [
    {
      "uri": "textures/material_0_baseColor.jpeg"
    }
  ],
  "materials": [
    {
      "doubleSided": true,
      "name": "material_0",
      "pbrMetallicRoughness": {
        "baseColorTexture": {
          "index": 0
        },
        "metallicFactor": 0.0,
        "roughnessFactor": 0.6
      }
    }
  ],
  "meshes": [
    {
      "name": "Object_0",
      "primitives": [
        {
          "attributes": {
            "NORMAL": 1,
            "POSITION": 0,
            "TEXCOORD_0": 2
          },
          "indices": 3,
          "material": 0,
          "mode": 4
        }
      ]
    },
    {
      "name": "Object_1",
      "primitives": [
        {
          "attributes": {
            "NORMAL": 5,
            "POSITION": 4,
            "TEXCOORD_0": 6
          },
          "indices": 7,
          "material": 0,
          "mode": 4
        }
      ]
    },
    {
      "name": "Object_2",
      "primitives": [
        {
          "attributes": {
            "NORMAL": 9,
            "POSITION": 8,
            "TEXCOORD_0": 10
          },
          "indices": 11,
          "material": 0,
          "mode": 4
        }
      ]
    },
    {
      "name": "Object_3",
      "primitives": [
        {
          "attributes": {
            "NORMAL": 13,
            "POSITION": 12,
            "TEXCOORD_0": 14
          },
          "indices": 15,
          "material": 0,
          "mode": 4
        }
      ]
    },
    {
      "name": "Object_4",
      "primitives": [
        {
          "attributes": {
            "NORMAL": 17,
            "POSITION": 16,
            "TEXCOORD_0": 18
          },
          "indices": 19,
          "material": 0,
          "mode": 4
        }
      ]
    },
    {
      "name": "Object_5",
      "primitives": [
        {
          "attributes": {
            "NORMAL": 21,
            "POSITION": 20,
            "TEXCOORD_0": 22
          },
          "indices": 23,
          "material": 0,
          "mode": 4
        }
      ]
    },
    {
      "name": "Object_6",
      "primitives": [
        {
          "attributes": {
            "NORMAL": 25,
            "POSITION": 24,
            "TEXCOORD_0": 26
          },
          "indices": 27,
          "material": 0,
          "mode": 4
        }
      ]
    }
  ],
  "nodes": [
    {
      "children": [
        1
      ],
      "matrix": [
        1.0,
        0.0,
        0.0,
        0.0,
        0.0,
        2.220446049250313e-16,
        -1.0,
        0.0,
        0.0,
        1.0,
        2.220446049250313e-16,
        0.0,
        0.0,
        0.0,
        0.0,
        1.0
      ],
      "name": "Sketchfab_model"
    },
    {
      "children": [
        2,
        3,
        4,
        5,
        6,
        7,
        8
      ],
      "name": "Photoscan - Koeln_Drecksfeld_01.obj.cleaner.gles"
    },
    {
      "mesh": 0,
      "name": "Object_2"
    },
    {
      "mesh": 1,
      "name": "Object_3"
    },
    {
      "mesh": 2,
      "name": "Object_4"
    },
    {
      "mesh": 3,
      "name": "Object_5"
    },
    {
      "mesh": 4,
      "name": "Object_6"
    },
    {
      "mesh": 5,
      "name": "Object_7"
    },
    {
      "mesh": 6,
      "name": "Object_8"
    }
  ],
  "samplers": [
    {
      "magFilter": 9729,
      "minFilter": 9987,
      "wrapS": 10497,
      "wrapT": 10497
    }
  ],
  "scene": 0,
  "scenes": [
    {
      "name": "Sketchfab_Scene",
      "nodes": [
        0
      ]
    }
  ],
  "textures": [
    {
      "sampler": 0,
      "source": 0
    }
  ]
}
